<svg width="85" height="90" viewBox="0 0 85 90" fill="none" xmlns="http://www.w3.org/2000/svg">
<g clip-path="url(#clip0_6128_525)">
<g opacity="0.9">
<path d="M34.2388 31.0675C38.6797 28.5036 40.2014 22.8255 37.6378 18.3851C35.0741 13.9447 29.3958 12.4235 24.955 14.9875C20.5141 17.5514 18.9923 23.2295 21.556 27.6699C24.1196 32.1103 29.7979 33.6315 34.2388 31.0675Z" stroke="url(#paint0_linear_6128_525)" stroke-width="0.6" stroke-miterlimit="10"/>
<path d="M35.279 32.8673C39.9931 30.1456 41.6087 24.1182 38.8874 19.4048C36.1661 14.6914 30.1385 13.0768 25.4244 15.7985C20.7102 18.5202 19.0947 24.5475 21.816 29.261C24.5373 33.9744 30.5649 35.589 35.279 32.8673Z" stroke="url(#paint1_linear_6128_525)" stroke-width="0.6" stroke-miterlimit="10"/>
<path d="M36.3572 34.7339C41.3838 31.8317 43.1065 25.405 40.205 20.3793C37.3034 15.3536 30.8763 13.6321 25.8496 16.5343C20.823 19.4364 19.1002 25.8632 22.0018 30.8889C24.9034 35.9145 31.3305 37.636 36.3572 34.7339Z" stroke="url(#paint2_linear_6128_525)" stroke-width="0.6" stroke-miterlimit="10"/>
<path d="M37.4875 36.655C42.8562 33.5441 44.6871 26.6711 41.577 21.3037C38.4669 15.9363 31.5934 14.107 26.2247 17.2179C20.8561 20.3287 19.0252 27.2017 22.1353 32.5691C25.2454 37.9365 32.1188 39.7658 37.4875 36.655Z" stroke="url(#paint3_linear_6128_525)" stroke-width="0.6" stroke-miterlimit="10"/>
<path d="M38.614 38.6429C44.3606 35.3251 46.3303 27.9782 43.0134 22.2331C39.6965 16.4881 32.3491 14.5205 26.6024 17.8383C20.8558 21.1561 18.8861 28.503 22.203 34.248C25.5199 39.993 32.8674 41.9607 38.614 38.6429Z" stroke="url(#paint4_linear_6128_525)" stroke-width="0.6" stroke-miterlimit="10"/>
<path d="M39.7783 40.6624C45.9192 37.1169 48.0234 29.2647 44.4781 23.1241C40.9328 16.9834 33.0805 14.8796 26.9395 18.4251C20.7985 21.9705 18.6944 29.8227 22.2397 35.9634C25.785 42.1041 33.6373 44.2079 39.7783 40.6624Z" stroke="url(#paint5_linear_6128_525)" stroke-width="0.6" stroke-miterlimit="10"/>
<path d="M40.9649 42.7158C47.5199 38.9313 49.766 30.5501 45.9819 23.9958C42.1978 17.4414 33.8163 15.1961 27.2614 18.9806C20.7064 22.7651 18.4602 31.1463 22.2444 37.7006C26.0285 44.255 34.41 46.5003 40.9649 42.7158Z" stroke="url(#paint6_linear_6128_525)" stroke-width="0.6" stroke-miterlimit="10"/>
<path d="M42.1641 44.7944C49.1477 40.7624 51.541 31.8333 47.5095 24.8506C43.4781 17.8679 34.5486 15.476 27.5649 19.508C20.5813 23.54 18.188 32.4692 22.2195 39.4518C26.2509 46.4345 35.1804 48.8264 42.1641 44.7944Z" stroke="url(#paint7_linear_6128_525)" stroke-width="0.6" stroke-miterlimit="10"/>
<path d="M43.3781 46.8947C50.8019 42.6086 53.3454 33.1156 49.0591 25.6915C44.7728 18.2674 35.2799 15.7236 27.8561 20.0098C20.4322 24.2959 17.8888 33.7889 22.1751 41.213C26.4614 48.6371 35.9543 51.1809 43.3781 46.8947Z" stroke="url(#paint8_linear_6128_525)" stroke-width="0.6" stroke-miterlimit="10"/>
<path d="M44.6021 49.0147C52.4776 44.4678 55.1759 34.3976 50.6291 26.5223C46.0823 18.647 36.0121 15.9488 28.1367 20.4957C20.2612 25.0425 17.5629 35.1127 22.1097 42.988C26.6565 50.8633 36.7267 53.5616 44.6021 49.0147Z" stroke="url(#paint9_linear_6128_525)" stroke-width="0.6" stroke-miterlimit="10"/>
<path d="M45.8346 51.1488C54.1699 46.3365 57.026 35.6787 52.2139 27.344C47.4019 19.0093 36.7439 16.1538 28.4087 20.9662C20.0734 25.7785 17.2173 36.4363 22.0294 44.771C26.8414 53.1057 37.4994 55.9612 45.8346 51.1488Z" stroke="url(#paint10_linear_6128_525)" stroke-width="0.6" stroke-miterlimit="10"/>
<path d="M47.0776 53.3021C55.8808 48.2196 58.8974 36.9637 53.8154 28.1614C48.7334 19.3591 37.4772 16.3436 28.674 21.4262C19.8708 26.5087 16.8542 37.7646 21.9362 46.5669C27.0182 55.3692 38.2744 58.3846 47.0776 53.3021Z" stroke="url(#paint11_linear_6128_525)" stroke-width="0.6" stroke-miterlimit="10"/>
<path d="M57.8891 40.9126C56.6484 51.5517 47.0152 59.1698 36.378 57.9264C25.7378 56.6847 18.1201 47.0551 19.3655 36.4173C20.6062 25.7782 30.2394 18.1601 40.8766 19.4035C51.5168 20.6453 59.1345 30.2748 57.8891 40.9126Z" stroke="url(#paint12_linear_6128_525)" stroke-width="0.6" stroke-miterlimit="10"/>
<path d="M59.5774 42.7882C58.0181 53.9428 47.7109 61.7211 36.557 60.1642C25.403 58.6073 17.6222 48.2984 19.1815 37.1438C20.7408 25.9892 31.048 18.211 42.2019 19.7678C53.3575 21.3277 61.1367 31.6337 59.5774 42.7882Z" stroke="url(#paint13_linear_6128_525)" stroke-width="0.6" stroke-miterlimit="10"/>
<path d="M61.2666 44.6663C59.3886 56.3364 48.4063 64.2795 36.7352 62.4016C25.0658 60.5266 17.1222 49.5458 18.9984 37.8728C20.8764 26.2027 31.8587 18.2596 43.5298 20.1376C55.201 22.0155 63.1428 32.9933 61.2666 44.6663Z" stroke="url(#paint14_linear_6128_525)" stroke-width="0.6" stroke-miterlimit="10"/>
<path d="M62.9534 46.543C60.7586 58.7315 49.1007 66.8318 36.9128 64.6404C24.7249 62.449 16.6229 50.7901 18.8148 38.6033C21.0096 26.4147 32.6676 18.3144 44.8554 20.5058C57.0433 22.6972 65.1454 34.3561 62.9534 46.543Z" stroke="url(#paint15_linear_6128_525)" stroke-width="0.6" stroke-miterlimit="10"/>
<path d="M64.6422 48.4216C62.1317 61.124 49.7956 69.3908 37.0922 66.8813C24.3889 64.3718 16.1224 52.0381 18.6359 39.3341C21.1465 26.6317 33.4825 18.3649 46.1859 20.8744C58.8892 23.3839 67.1557 35.7176 64.6422 48.4216Z" stroke="url(#paint16_linear_6128_525)" stroke-width="0.6" stroke-miterlimit="10"/>
<path d="M66.3275 50.2978C63.5 63.5187 50.4884 71.9427 37.2665 69.1168C24.0447 66.2908 15.6215 53.282 18.449 40.0612C21.2764 26.8404 34.2881 18.4163 47.5099 21.2423C60.7317 24.0682 69.1549 37.077 66.3275 50.2978Z" stroke="url(#paint17_linear_6128_525)" stroke-width="0.6" stroke-miterlimit="10"/>
<path d="M68.0153 52.1775C64.8692 65.9138 51.1824 74.5027 37.4451 71.3587C23.7078 68.2146 15.1231 54.5293 18.2675 40.79C21.4136 27.0537 35.0974 18.4666 48.8377 21.6089C62.575 24.7529 71.1626 38.4365 68.0165 52.1729L68.0153 52.1775Z" stroke="url(#paint18_linear_6128_525)" stroke-width="0.6" stroke-miterlimit="10"/>
<path d="M69.702 54.0515C66.239 68.3062 51.8783 77.0553 37.6255 73.5931C23.3698 70.1327 14.6207 55.7726 18.0837 41.5178C21.5467 27.263 35.9074 18.514 50.1602 21.9762C64.413 25.4383 73.1621 39.7984 69.702 54.0515Z" stroke="url(#paint19_linear_6128_525)" stroke-width="0.6" stroke-miterlimit="10"/>
<path d="M71.3917 55.931C67.6131 70.6996 52.5755 79.6104 37.8042 75.8319C23.033 72.0533 14.1225 57.0168 17.9041 42.2465C21.6828 27.4779 36.7203 18.5671 51.4916 22.3456C66.2629 26.1242 75.1733 41.1607 71.3917 55.931Z" stroke="url(#paint20_linear_6128_525)" stroke-width="0.6" stroke-miterlimit="10"/>
<path d="M73.0751 57.8084C68.9796 73.0954 53.2651 82.1682 37.9784 78.0715C22.6916 73.9748 13.6215 58.2648 17.717 42.9778C21.8126 27.6907 37.527 18.618 52.8137 22.7147C68.1005 26.8113 77.1707 42.5213 73.0751 57.8084Z" stroke="url(#paint21_linear_6128_525)" stroke-width="0.6" stroke-miterlimit="10"/>
</g>
</g>
<defs>
<linearGradient id="paint0_linear_6128_525" x1="17.0635" y1="19.5436" x2="37.8802" y2="12.752" gradientUnits="userSpaceOnUse">
<stop stop-color="#8258C8"/>
<stop offset="0.315" stop-color="#6766C8"/>
<stop offset="1" stop-color="#2C84C8"/>
</linearGradient>
<linearGradient id="paint1_linear_6128_525" x1="17.0473" y1="20.635" x2="39.1449" y2="13.4257" gradientUnits="userSpaceOnUse">
<stop stop-color="#8258C8"/>
<stop offset="0.315" stop-color="#6766C8"/>
<stop offset="1" stop-color="#2C84C8"/>
</linearGradient>
<linearGradient id="paint2_linear_6128_525" x1="16.9172" y1="21.6914" x2="40.4798" y2="14.0044" gradientUnits="userSpaceOnUse">
<stop stop-color="#8258C8"/>
<stop offset="0.315" stop-color="#6766C8"/>
<stop offset="1" stop-color="#2C84C8"/>
</linearGradient>
<linearGradient id="paint3_linear_6128_525" x1="16.6846" y1="22.7459" x2="41.8603" y2="14.4891" gradientUnits="userSpaceOnUse">
<stop stop-color="#8258C8"/>
<stop offset="0.315" stop-color="#6766C8"/>
<stop offset="1" stop-color="#2C84C8"/>
</linearGradient>
<linearGradient id="paint4_linear_6128_525" x1="16.3907" y1="23.734" x2="43.3282" y2="14.9465" gradientUnits="userSpaceOnUse">
<stop stop-color="#8258C8"/>
<stop offset="0.315" stop-color="#6766C8"/>
<stop offset="1" stop-color="#2C84C8"/>
</linearGradient>
<linearGradient id="paint5_linear_6128_525" x1="16.027" y1="24.7254" x2="44.8128" y2="15.3334" gradientUnits="userSpaceOnUse">
<stop stop-color="#8258C8"/>
<stop offset="0.315" stop-color="#6766C8"/>
<stop offset="1" stop-color="#2C84C8"/>
</linearGradient>
<linearGradient id="paint6_linear_6128_525" x1="15.6132" y1="25.7056" x2="46.3396" y2="15.6809" gradientUnits="userSpaceOnUse">
<stop stop-color="#8258C8"/>
<stop offset="0.315" stop-color="#6766C8"/>
<stop offset="1" stop-color="#2C84C8"/>
</linearGradient>
<linearGradient id="paint7_linear_6128_525" x1="15.155" y1="26.6729" x2="47.891" y2="15.9928" gradientUnits="userSpaceOnUse">
<stop stop-color="#8258C8"/>
<stop offset="0.315" stop-color="#6766C8"/>
<stop offset="1" stop-color="#2C84C8"/>
</linearGradient>
<linearGradient id="paint8_linear_6128_525" x1="14.6639" y1="27.6263" x2="49.463" y2="16.2717" gradientUnits="userSpaceOnUse">
<stop stop-color="#8258C8"/>
<stop offset="0.315" stop-color="#6766C8"/>
<stop offset="1" stop-color="#2C84C8"/>
</linearGradient>
<linearGradient id="paint9_linear_6128_525" x1="14.142" y1="28.5755" x2="51.0581" y2="16.5306" gradientUnits="userSpaceOnUse">
<stop stop-color="#8258C8"/>
<stop offset="0.315" stop-color="#6766C8"/>
<stop offset="1" stop-color="#2C84C8"/>
</linearGradient>
<linearGradient id="paint10_linear_6128_525" x1="13.5969" y1="29.5177" x2="52.6684" y2="16.77" gradientUnits="userSpaceOnUse">
<stop stop-color="#8258C8"/>
<stop offset="0.315" stop-color="#6766C8"/>
<stop offset="1" stop-color="#2C84C8"/>
</linearGradient>
<linearGradient id="paint11_linear_6128_525" x1="13.0306" y1="30.4578" x2="54.2958" y2="16.9948" gradientUnits="userSpaceOnUse">
<stop stop-color="#8258C8"/>
<stop offset="0.315" stop-color="#6766C8"/>
<stop offset="1" stop-color="#2C84C8"/>
</linearGradient>
<linearGradient id="paint12_linear_6128_525" x1="12.445" y1="31.3871" x2="55.9312" y2="17.1995" gradientUnits="userSpaceOnUse">
<stop stop-color="#8258C8"/>
<stop offset="0.315" stop-color="#6766C8"/>
<stop offset="1" stop-color="#2C84C8"/>
</linearGradient>
<linearGradient id="paint13_linear_6128_525" x1="11.8478" y1="32.3124" x2="57.5743" y2="17.3934" gradientUnits="userSpaceOnUse">
<stop stop-color="#8258C8"/>
<stop offset="0.315" stop-color="#6766C8"/>
<stop offset="1" stop-color="#2C84C8"/>
</linearGradient>
<linearGradient id="paint14_linear_6128_525" x1="11.2371" y1="33.2366" x2="59.2283" y2="17.5786" gradientUnits="userSpaceOnUse">
<stop stop-color="#8258C8"/>
<stop offset="0.315" stop-color="#6766C8"/>
<stop offset="1" stop-color="#2C84C8"/>
</linearGradient>
<linearGradient id="paint15_linear_6128_525" x1="10.6149" y1="34.1588" x2="60.8886" y2="17.7564" gradientUnits="userSpaceOnUse">
<stop stop-color="#8258C8"/>
<stop offset="0.315" stop-color="#6766C8"/>
<stop offset="1" stop-color="#2C84C8"/>
</linearGradient>
<linearGradient id="paint16_linear_6128_525" x1="9.9849" y1="35.0799" x2="62.5605" y2="17.9275" gradientUnits="userSpaceOnUse">
<stop stop-color="#8258C8"/>
<stop offset="0.315" stop-color="#6766C8"/>
<stop offset="1" stop-color="#2C84C8"/>
</linearGradient>
<linearGradient id="paint17_linear_6128_525" x1="9.34135" y1="35.9941" x2="64.2297" y2="18.087" gradientUnits="userSpaceOnUse">
<stop stop-color="#8258C8"/>
<stop offset="0.315" stop-color="#6766C8"/>
<stop offset="1" stop-color="#2C84C8"/>
</linearGradient>
<linearGradient id="paint18_linear_6128_525" x1="8.694" y1="36.9083" x2="65.9096" y2="18.2418" gradientUnits="userSpaceOnUse">
<stop stop-color="#8258C8"/>
<stop offset="0.315" stop-color="#6766C8"/>
<stop offset="1" stop-color="#2C84C8"/>
</linearGradient>
<linearGradient id="paint19_linear_6128_525" x1="8.03886" y1="37.8176" x2="67.585" y2="18.3892" gradientUnits="userSpaceOnUse">
<stop stop-color="#8258C8"/>
<stop offset="0.315" stop-color="#6766C8"/>
<stop offset="1" stop-color="#2C84C8"/>
</linearGradient>
<linearGradient id="paint20_linear_6128_525" x1="7.38189" y1="38.7297" x2="69.2769" y2="18.5361" gradientUnits="userSpaceOnUse">
<stop stop-color="#8258C8"/>
<stop offset="0.315" stop-color="#6766C8"/>
<stop offset="1" stop-color="#2C84C8"/>
</linearGradient>
<linearGradient id="paint21_linear_6128_525" x1="6.71323" y1="39.6389" x2="70.9598" y2="18.6771" gradientUnits="userSpaceOnUse">
<stop stop-color="#8258C8"/>
<stop offset="0.315" stop-color="#6766C8"/>
<stop offset="1" stop-color="#2C84C8"/>
</linearGradient>
<clipPath id="clip0_6128_525">
<rect width="57.5188" height="69.7415" fill="white" transform="translate(0 29.2773) rotate(-30)"/>
</clipPath>
</defs>
</svg>
